<svg width="174" height="170" viewBox="0 0 174 170" fill="none" xmlns="http://www.w3.org/2000/svg">
<path d="M29 28.3307H58.0725V14.1641H14.5V56.6641H29V28.3307ZM29 113.331H14.5V155.831H58.0725V141.664H29V113.331ZM145 141.664H116V155.831H159.5V113.331H145V141.664ZM116 28.3307H145V56.6641H159.5V14.1641H116V28.3307Z" fill="#1B1B1B" fill-opacity="0.866667"/>
<path d="M36.25 77.9141H79.75V35.4141H36.25V77.9141ZM50.75 49.5807H65.25V63.7474H50.75V49.5807ZM36.25 134.581H79.75V92.0807H36.25V134.581ZM50.75 106.247H65.25V120.414H50.75V106.247ZM137.75 35.4141H94.25V77.9141H137.75V35.4141ZM123.25 63.7474H108.75V49.5807H123.25V63.7474ZM94.3225 92.0807H108.822V106.247H94.3225V92.0807ZM108.822 106.247H123.322V120.414H108.822V106.247ZM123.322 120.414H137.822V134.581H123.322V120.414ZM123.322 92.0807H137.822V106.247H123.322V92.0807Z" fill="#1B1B1B" fill-opacity="0.866667"/>
</svg>
