<svg width="24" height="25" viewBox="0 0 24 25" fill="none" xmlns="http://www.w3.org/2000/svg">
<rect width="24" height="25" rx="6" fill="#F8F8F8"/>
<rect x="0.5" y="0.5" width="23" height="24" rx="5.5" stroke="#DDDDDD" stroke-opacity="0.866667"/>
<path d="M6 18V15.1667L14.8 6.38333C14.9333 6.26111 15.0807 6.16667 15.242 6.1C15.4033 6.03333 15.5727 6 15.75 6C15.9273 6 16.0996 6.03333 16.2667 6.1C16.4338 6.16667 16.5782 6.26667 16.7 6.4L17.6167 7.33333C17.75 7.45555 17.8473 7.6 17.9087 7.76667C17.97 7.93333 18.0004 8.1 18 8.26667C18 8.44444 17.9696 8.614 17.9087 8.77533C17.8478 8.93667 17.7504 9.08378 17.6167 9.21666L8.83333 18H6ZM15.7333 9.2L16.6667 8.26667L15.7333 7.33333L14.8 8.26667L15.7333 9.2Z" fill="#B5B0B0" fill-opacity="0.866667"/>
</svg>
