<svg width="24" height="25" viewBox="0 0 24 25" fill="none" xmlns="http://www.w3.org/2000/svg">
<rect width="24" height="25" rx="6" fill="#F8F8F8"/>
<rect x="0.5" y="0.5" width="23" height="24" rx="5.5" stroke="#DDDDDD" stroke-opacity="0.866667"/>
<path d="M8.875 18.25C8.53125 18.25 8.23708 18.1277 7.9925 17.8831C7.74792 17.6385 7.62542 17.3442 7.625 17V8.875H7V7.625H10.125V7H13.875V7.625H17V8.875H16.375V17C16.375 17.3438 16.2527 17.6381 16.0081 17.8831C15.7635 18.1281 15.4692 18.2504 15.125 18.25H8.875ZM15.125 8.875H8.875V17H15.125V8.875ZM10.125 15.75H11.375V10.125H10.125V15.75ZM12.625 15.75H13.875V10.125H12.625V15.75Z" fill="#BEBABA"/>
</svg>
