<svg width="11" height="10" viewBox="0 0 11 10" fill="none" xmlns="http://www.w3.org/2000/svg">
<path fill-rule="evenodd" clip-rule="evenodd" d="M5.09372 0.563284C5.11388 0.652066 5.11635 0.743949 5.101 0.833687C5.08565 0.923424 5.05277 1.00926 5.00425 1.08628C4.95572 1.16331 4.89251 1.23002 4.8182 1.28261C4.7439 1.33519 4.65997 1.37262 4.5712 1.39276C4.48589 1.41217 4.4018 1.43466 4.31895 1.46023C4.23198 1.48711 4.14056 1.4966 4.04993 1.48814C3.95929 1.47969 3.87121 1.45346 3.7907 1.41096C3.7102 1.36846 3.63886 1.31051 3.58074 1.24043C3.52263 1.17035 3.47888 1.0895 3.45201 1.00251C3.42513 0.915522 3.41565 0.824088 3.4241 0.733431C3.43255 0.642774 3.45877 0.55467 3.50126 0.474149C3.54376 0.393628 3.60169 0.322267 3.67175 0.26414C3.74182 0.206013 3.82265 0.162259 3.90962 0.135376C4.02604 0.0993318 4.14416 0.0677547 4.26397 0.0406446C4.35273 0.020485 4.4446 0.0180126 4.53431 0.0333688C4.62403 0.0487249 4.70985 0.0816088 4.78685 0.130142C4.86386 0.178675 4.93056 0.241908 4.98313 0.316227C5.03571 0.390546 5.07359 0.474497 5.09372 0.563284ZM5.58945 0.563284C5.63021 0.384055 5.74047 0.228358 5.89599 0.130434C6.05151 0.0325106 6.23954 0.000379298 6.41874 0.0411068C8.57951 0.530474 10.1928 2.46207 10.1928 4.77259C10.1928 7.45232 8.02096 9.62467 5.34182 9.62467C3.03228 9.62467 1.10112 8.01101 0.610938 5.85021C0.570258 5.67091 0.602455 5.48279 0.700447 5.32723C0.798439 5.17167 0.954198 5.06142 1.13346 5.02074C1.31272 4.98005 1.5008 5.01225 1.65632 5.11026C1.81184 5.20828 1.92207 5.36407 1.96275 5.54337C2.10065 6.14712 2.39777 6.70289 2.8232 7.15285C3.24863 7.60281 3.78684 7.93052 4.38182 8.10191C4.9768 8.27329 5.60683 8.28209 6.20636 8.12737C6.8059 7.97265 7.35303 7.66008 7.79085 7.22216C8.22866 6.78425 8.54117 6.23699 8.69585 5.63733C8.85053 5.03766 8.84174 4.40749 8.67039 3.81237C8.49905 3.21726 8.1714 2.67893 7.72154 2.2534C7.27169 1.82788 6.71605 1.53069 6.11243 1.39276C5.93325 1.35199 5.77758 1.2417 5.67968 1.08615C5.58178 0.930599 5.54873 0.742522 5.58945 0.563284ZM3.02258 1.25182C3.14743 1.3866 3.21367 1.56546 3.20674 1.74907C3.19981 1.93268 3.12028 2.10603 2.98562 2.23102C2.92186 2.29043 2.86022 2.35208 2.80082 2.41586C2.73893 2.48261 2.66451 2.53652 2.5818 2.5745C2.49908 2.61249 2.4097 2.6338 2.31875 2.63724C2.2278 2.64067 2.13707 2.62615 2.05173 2.59451C1.96639 2.56287 1.88812 2.51472 1.82138 2.45283C1.75464 2.39093 1.70074 2.31649 1.66277 2.23376C1.62479 2.15102 1.60348 2.06162 1.60005 1.97065C1.59662 1.87968 1.61113 1.78893 1.64277 1.70357C1.6744 1.61821 1.72253 1.53992 1.78442 1.47317C1.86758 1.38383 1.95382 1.29757 2.04314 1.21439C2.10987 1.15248 2.18814 1.10433 2.27348 1.07269C2.35882 1.04104 2.44956 1.02652 2.54051 1.02995C2.63147 1.03339 2.72085 1.0547 2.80356 1.09269C2.88628 1.13068 2.9607 1.18506 3.02258 1.25182ZM5.34182 1.76891C5.52561 1.76891 5.70188 1.84194 5.83184 1.97193C5.96181 2.10192 6.03482 2.27823 6.03482 2.46207V4.48562L7.21754 5.6686C7.28376 5.73252 7.33659 5.80898 7.37294 5.89353C7.4093 5.97808 7.42846 6.06902 7.42931 6.16106C7.43015 6.2531 7.41266 6.34438 7.37785 6.42958C7.34305 6.51478 7.29163 6.5922 7.22659 6.65731C7.16155 6.72242 7.0842 6.77393 6.99905 6.80882C6.9139 6.84371 6.82266 6.86129 6.73064 6.86054C6.63863 6.85978 6.54768 6.84071 6.46312 6.80442C6.37855 6.76813 6.30206 6.71536 6.2381 6.64919L4.8521 5.26288C4.78767 5.19852 4.73656 5.12209 4.70168 5.03796C4.6668 4.95384 4.64884 4.86366 4.64882 4.77259V2.46207C4.64882 2.27823 4.72183 2.10192 4.85179 1.97193C4.98176 1.84194 5.15802 1.76891 5.34182 1.76891ZM1.5719 2.88258C1.65892 2.90937 1.73981 2.95306 1.80994 3.01113C1.88008 3.06921 1.93809 3.14054 1.98065 3.22104C2.02321 3.30155 2.04949 3.38966 2.058 3.48033C2.0665 3.57101 2.05705 3.66247 2.0302 3.74949C2.00475 3.83277 1.98226 3.91693 1.96275 4.0018C1.92207 4.1811 1.81184 4.33689 1.65632 4.43491C1.5008 4.53292 1.31272 4.56513 1.13346 4.52444C0.954198 4.48375 0.798439 4.3735 0.700447 4.21794C0.602455 4.06238 0.570258 3.87426 0.610938 3.69496C0.638042 3.57481 0.669612 3.45667 0.705648 3.34053C0.732482 3.25353 0.776188 3.17267 0.834271 3.10257C0.892354 3.03247 0.963675 2.9745 1.04416 2.93197C1.12465 2.88945 1.21272 2.86319 1.30335 2.85472C1.39398 2.84625 1.48493 2.85571 1.5719 2.88258Z" fill="#1B1B1B"/>
</svg>
