<svg width="11" height="11" viewBox="0 0 11 11" fill="none" xmlns="http://www.w3.org/2000/svg">
<path d="M2.15143 0.5625C1.46023 0.5625 0.768168 1.0809 0.768168 2.1177L2.15143 4.8825L3.53383 2.1177C3.53383 1.0809 2.84263 0.5625 2.15143 0.5625ZM8.24911 1.4049C8.10007 1.41116 7.95535 1.43946 7.83439 1.46538L7.91647 1.84554C8.03743 1.81854 8.16271 1.80148 8.26855 1.7937L8.24911 1.4049ZM2.15143 1.4265C2.53375 1.4265 2.84263 1.73603 2.84263 2.1177C2.84263 2.50002 2.53375 2.8089 2.15143 2.8089C1.76976 2.8089 1.46023 2.50002 1.46023 2.1177C1.46023 1.73603 1.76976 1.4265 2.15143 1.4265ZM8.67895 1.43082L8.61415 1.81314C8.71999 1.83539 8.82583 1.86325 8.91871 1.91898L9.10663 1.5777C8.97487 1.5075 8.82799 1.44443 8.67895 1.43082ZM7.43695 1.57554C7.30519 1.62695 7.17343 1.67296 7.06111 1.7181L7.21447 2.0745C7.33327 2.02396 7.45855 1.97989 7.56439 1.94274L7.43695 1.57554ZM9.46087 1.86498L9.16495 2.1177C9.24271 2.20669 9.30319 2.31642 9.35071 2.40498L9.69847 2.23002C9.62503 2.08854 9.56023 1.9814 9.46087 1.86498ZM6.70039 1.88442C6.56863 1.9516 6.46063 2.01143 6.34399 2.07018L6.53407 2.41146C6.64639 2.34666 6.76951 2.28402 6.86887 2.23434L6.70039 1.88442ZM6.00271 2.27106C5.88823 2.33802 5.77591 2.40498 5.66575 2.47842L5.87743 2.80242C5.98327 2.7333 6.09343 2.6685 6.20143 2.6037L6.00271 2.27106ZM9.83239 2.6577C9.70495 2.6793 9.57535 2.69442 9.44791 2.70954C9.45655 2.81754 9.45007 2.93418 9.42847 3.0249L9.80647 3.11346C9.82807 2.95794 9.84751 2.7981 9.83239 2.6577ZM5.33743 2.69442C5.22943 2.76786 5.12359 2.84346 5.01559 2.9169L5.24023 3.23442C5.34391 3.15882 5.44975 3.08754 5.55559 3.0141L5.33743 2.69442ZM4.69807 3.15018C4.59007 3.22794 4.47775 3.31434 4.38487 3.38562L4.62031 3.6945C4.73911 3.6081 4.82119 3.5433 4.92919 3.46338L4.69807 3.15018ZM9.29887 3.32298C9.23407 3.42234 9.15847 3.5217 9.08287 3.5973L9.36583 3.8673C9.45871 3.75714 9.55807 3.64482 9.62719 3.5325L9.29887 3.32298ZM4.07599 3.62754C3.97015 3.70962 3.86431 3.79386 3.77143 3.87162L4.01767 4.17186C4.11919 4.08762 4.22287 4.00122 4.31791 3.9321L4.07599 3.62754ZM8.81503 3.8457C8.71567 3.92562 8.61199 4.00338 8.51695 4.06818L8.73943 4.38786C8.85391 4.3101 8.96623 4.22586 9.06343 4.1481L8.81503 3.8457ZM3.47119 4.12434C3.36967 4.20642 3.27247 4.29282 3.17311 4.37706L3.42583 4.67298C3.52303 4.58874 3.62023 4.5045 3.71959 4.42242L3.47119 4.12434ZM8.19943 4.27554C8.08927 4.34034 7.97479 4.4073 7.87111 4.46346L8.05687 4.8069C8.17351 4.73562 8.30527 4.67298 8.40247 4.60818L8.19943 4.27554ZM2.87719 4.6341C2.77999 4.7205 2.68495 4.8069 2.58775 4.89546L2.84911 5.1849C2.94415 5.0985 3.04135 5.0121 3.13639 4.9257L2.87719 4.6341ZM7.53199 4.64274C7.41751 4.6989 7.30303 4.75722 7.18855 4.81338L7.35487 5.1633C7.48879 5.0985 7.58815 5.0445 7.70911 4.98834L7.53199 4.64274ZM6.84079 4.97538C6.72199 5.02938 6.60751 5.08122 6.48655 5.1309L6.64423 5.4873C6.76303 5.43546 6.88183 5.38146 7.00063 5.32746L6.84079 4.97538ZM2.30263 5.1633C2.19247 5.2605 2.11579 5.3361 2.01535 5.4333L2.28967 5.7141C2.39119 5.6169 2.47327 5.53266 2.56831 5.45058L2.30263 5.1633ZM6.13231 5.28858C6.01351 5.33826 5.89471 5.3901 5.77591 5.43978L5.92711 5.8005C6.04807 5.75082 6.16687 5.69898 6.28567 5.64714L6.13231 5.28858ZM5.41735 5.59098C5.29855 5.64282 5.17975 5.69466 5.05879 5.74218L5.20999 6.1029C5.32879 6.05322 5.44975 6.00138 5.56855 5.9517L5.41735 5.59098ZM9.40903 5.7465C8.71783 5.7465 8.02663 6.2649 8.02663 7.3017L9.40903 10.0665L10.7914 7.3017C10.7914 6.2649 10.1002 5.7465 9.40903 5.7465ZM4.70023 5.89338C4.57711 5.94954 4.44751 6.00138 4.34167 6.04674L4.49503 6.4053C4.62247 6.3513 4.74343 6.29946 4.85143 6.25194L4.70023 5.89338ZM3.98311 6.2001C3.86647 6.2541 3.73039 6.31458 3.62671 6.3621L3.78655 6.71634C3.91399 6.66018 4.02631 6.60402 4.13863 6.5565L3.98311 6.2001ZM3.27031 6.5241C3.14935 6.58242 3.02407 6.6429 2.91607 6.6969L3.09103 7.04466C3.20767 6.98418 3.32863 6.92802 3.43447 6.87618L3.27031 6.5241ZM9.40903 6.6105C9.79135 6.6105 10.1002 6.91938 10.1002 7.3017C10.1002 7.68402 9.79135 7.9929 9.40903 7.9929C9.02671 7.9929 8.71783 7.68402 8.71783 7.3017C8.71783 6.91938 9.02671 6.6105 9.40903 6.6105ZM2.56615 6.87618C2.45167 6.93882 2.33719 7.00362 2.22055 7.07058L2.41495 7.40754C2.52511 7.34274 2.63743 7.28226 2.74975 7.22178L2.56615 6.87618ZM1.88143 7.2801C1.76026 7.34922 1.64318 7.4421 1.54231 7.50906L1.77775 7.8201C1.8851 7.74234 2.00066 7.66242 2.09311 7.60626L1.88143 7.2801ZM1.23559 7.76826C1.13191 7.8633 1.02974 7.97346 0.950472 8.06634L1.24639 8.31906C1.32955 8.21754 1.40191 8.14194 1.49911 8.05554L1.23559 7.76826ZM5.94007 7.79634L5.97463 8.18298C6.08695 8.16354 6.19927 8.1765 6.31159 8.19378L6.37855 7.81146C6.23599 7.78986 6.08479 7.77474 5.94007 7.79634ZM5.13655 8.01234L5.28343 8.37306C5.39575 8.32338 5.51239 8.2845 5.63119 8.24778C5.59015 8.12466 5.55991 7.99938 5.52751 7.8741C5.39143 7.91298 5.25535 7.96482 5.13655 8.01234ZM6.81055 7.9929L6.59023 8.31258C6.68095 8.37954 6.76951 8.45082 6.84079 8.53938L7.13455 8.2845C7.02439 8.17218 6.94015 8.06634 6.81055 7.9929ZM4.76935 8.1873C4.65055 8.24778 4.53607 8.3169 4.42159 8.38386L4.61815 8.71866C4.73047 8.65818 4.84063 8.5869 4.95079 8.52858L4.76935 8.1873ZM0.713088 8.4249C0.647857 8.5653 0.594936 8.7165 0.570312 8.85042L0.952632 8.91738C0.97596 8.79426 1.00944 8.7057 1.05847 8.59986C0.939888 8.54802 0.826705 8.48538 0.713088 8.4249ZM4.08463 8.59338C3.97447 8.66466 3.86647 8.73594 3.75847 8.80938L3.97447 9.13338C4.08247 9.0621 4.18831 8.98866 4.29631 8.91738L4.08463 8.59338ZM7.38295 8.6193L7.05679 8.83098C7.12591 8.93466 7.19287 9.04266 7.25551 9.15282L7.59247 8.95842C7.51687 8.83746 7.46287 8.72946 7.38295 8.6193ZM3.43663 9.0297C3.32863 9.10098 3.22063 9.1701 3.11479 9.2457L3.33079 9.5697C3.43447 9.4941 3.54463 9.42282 3.65479 9.34938L3.43663 9.0297ZM0.956952 9.2349C0.831888 9.26082 0.705745 9.28242 0.580033 9.30618C0.602713 9.45738 0.663409 9.60426 0.718272 9.7209L1.06927 9.55242C1.0224 9.44442 0.977904 9.3321 0.956952 9.2349ZM7.78471 9.29538L7.44775 9.48978C7.51471 9.60642 7.59247 9.7317 7.65511 9.83106L7.98127 9.62154C7.90783 9.50706 7.84519 9.39906 7.78471 9.29538ZM2.79511 9.45738C2.68711 9.52434 2.58127 9.58914 2.46895 9.65178L2.66119 9.9909C2.77567 9.92394 2.89015 9.85698 3.00031 9.7857L2.79511 9.45738ZM1.25503 9.80946L0.989352 10.0946C1.10945 10.2091 1.25762 10.2847 1.41919 10.3192L1.50559 9.94122C1.40969 9.92178 1.32005 9.87426 1.25503 9.80946ZM2.14063 9.81594C2.03242 9.86562 1.9201 9.9045 1.80367 9.92826L1.89223 10.3084C2.0309 10.2803 2.16137 10.2285 2.29183 10.1745L2.14063 9.81594ZM8.19511 9.91962L7.89487 10.1637C7.98775 10.2782 8.10223 10.3883 8.20159 10.4661L8.44135 10.1594C8.34631 10.0859 8.26423 9.99738 8.19511 9.91962ZM8.71567 10.2976L8.61847 10.6756C8.78911 10.7102 8.91655 10.721 9.07639 10.7037L9.02887 10.3171C8.92303 10.3343 8.81935 10.3235 8.71567 10.2976Z" fill="#1B1B1B"/>
</svg>
