<svg width="24" height="24" viewBox="0 0 24 24" fill="none" xmlns="http://www.w3.org/2000/svg">
<circle cx="12" cy="12" r="12" fill="#DD4C39"/>
<path d="M19.3953 11.4047H18.1953V10.2047H16.9953V11.4047H15.7953V12.6047H16.9953V13.8047H18.1953V12.6047H19.3953M10.3953 11.4047V12.8447H12.7953C12.6753 13.4447 12.0753 14.6447 10.3953 14.6447C8.95531 14.6447 7.81531 13.4447 7.81531 12.0047C7.81531 10.5647 8.95531 9.36469 10.3953 9.36469C11.2353 9.36469 11.7753 9.72469 12.0753 10.0247L13.2153 8.94469C12.4953 8.22469 11.5353 7.80469 10.3953 7.80469C8.05531 7.80469 6.19531 9.66469 6.19531 12.0047C6.19531 14.3447 8.05531 16.2047 10.3953 16.2047C12.7953 16.2047 14.4153 14.5247 14.4153 12.1247C14.4153 11.8247 14.4153 11.6447 14.3553 11.4047H10.3953Z" fill="white"/>
</svg>
