<svg width="14" height="14" viewBox="0 0 14 14" fill="none" xmlns="http://www.w3.org/2000/svg">
<path d="M12 12L9.58725 9.58725M9.58725 9.58725C9.99996 9.17454 10.3273 8.68458 10.5507 8.14535C10.7741 7.60612 10.889 7.02817 10.889 6.44451C10.889 5.86085 10.7741 5.2829 10.5507 4.74367C10.3273 4.20444 9.99996 3.71448 9.58725 3.30177C9.17454 2.88906 8.68458 2.56168 8.14535 2.33832C7.60612 2.11496 7.02817 2 6.44451 2C5.86085 2 5.2829 2.11496 4.74367 2.33832C4.20444 2.56168 3.71448 2.88906 3.30177 3.30177C2.46826 4.13527 2 5.26575 2 6.44451C2 7.62326 2.46826 8.75374 3.30177 9.58725C4.13527 10.4208 5.26575 10.889 6.44451 10.889C7.62326 10.889 8.75374 10.4208 9.58725 9.58725Z" stroke="#CDC4C4" stroke-width="2.5" stroke-linecap="round" stroke-linejoin="round"/>
</svg>
