<svg width="25" height="25" viewBox="0 0 25 25" fill="none" xmlns="http://www.w3.org/2000/svg">
<circle cx="12.3906" cy="12.6094" r="12" fill="url(#paint0_linear_5684_67)"/>
<path d="M15.3906 7.21094H9.39062C7.73377 7.21094 6.39062 8.55408 6.39062 10.2109V16.2109C6.39062 17.8678 7.73377 19.2109 9.39062 19.2109H15.3906C17.0475 19.2109 18.3906 17.8678 18.3906 16.2109V10.2109C18.3906 8.55408 17.0475 7.21094 15.3906 7.21094Z" stroke="white" stroke-width="1.2" stroke-linecap="round" stroke-linejoin="round"/>
<path d="M15.6897 9.91406H15.6957M14.7897 12.8361C14.8637 13.3354 14.7784 13.8454 14.5459 14.2935C14.3134 14.7416 13.9456 15.1049 13.4946 15.3319C13.0437 15.5588 12.5327 15.6378 12.0343 15.5576C11.5359 15.4774 11.0755 15.2421 10.7186 14.8852C10.3616 14.5282 10.1263 14.0678 10.0461 13.5694C9.96591 13.071 10.0449 12.56 10.2719 12.1091C10.4988 11.6582 10.8622 11.2903 11.3103 11.0578C11.7583 10.8253 12.2683 10.74 12.7677 10.8141C13.277 10.8896 13.7486 11.1269 14.1127 11.491C14.4768 11.8552 14.7141 12.3267 14.7897 12.8361Z" stroke="white" stroke-width="1.2" stroke-linecap="round" stroke-linejoin="round"/>
<defs>
<linearGradient id="paint0_linear_5684_67" x1="12.5" y1="0.5" x2="12" y2="24" gradientUnits="userSpaceOnUse">
<stop stop-color="#F73C7C"/>
<stop offset="1" stop-color="#6F4CB9"/>
</linearGradient>
</defs>
</svg>
