<svg width="25" height="24" viewBox="0 0 25 24" fill="none" xmlns="http://www.w3.org/2000/svg">
<circle cx="12.3984" cy="12" r="12" fill="#007BB6"/>
<path d="M9.35313 6.61466C9.35297 6.93292 9.22639 7.23808 9.00123 7.46302C8.77607 7.68795 8.47079 7.81422 8.15253 7.81406C7.83427 7.8139 7.5291 7.68732 7.30417 7.46217C7.07924 7.23701 6.95297 6.93172 6.95313 6.61346C6.95328 6.2952 7.07987 5.99004 7.30502 5.76511C7.53018 5.54018 7.83547 5.4139 8.15373 5.41406C8.47198 5.41422 8.77715 5.5408 9.00208 5.76596C9.22701 5.99111 9.35328 6.2964 9.35313 6.61466ZM9.38913 8.70266H6.98913V16.2147H9.38913V8.70266ZM13.1811 8.70266H10.7931V16.2147H13.1571V12.2727C13.1571 10.0767 16.0191 9.87266 16.0191 12.2727V16.2147H18.3891V11.4567C18.3891 7.75466 14.1531 7.89266 13.1571 9.71066L13.1811 8.70266Z" fill="white"/>
</svg>
