<svg width="18" height="18" viewBox="0 0 18 18" fill="none" xmlns="http://www.w3.org/2000/svg">
<path d="M12.6047 7.65C12.6047 8.55174 12.2465 9.41654 11.6089 10.0542C10.9712 10.6918 10.1064 11.05 9.20469 11.05C8.30295 11.05 7.43815 10.6918 6.80052 10.0542C6.1629 9.41654 5.80469 8.55174 5.80469 7.65C5.80469 6.74827 6.1629 5.88346 6.80052 5.24584C7.43815 4.60821 8.30295 4.25 9.20469 4.25C10.1064 4.25 10.9712 4.60821 11.6089 5.24584C12.2465 5.88346 12.6047 6.74827 12.6047 7.65Z" fill="#1B1B1B" fill-opacity="0.5367"/>
<path fill-rule="evenodd" clip-rule="evenodd" d="M8.85632 17.8448C4.32285 17.6629 0.703125 13.9297 0.703125 9.35156C0.703125 4.65701 4.50857 0.851562 9.20312 0.851562C13.8977 0.851562 17.7031 4.65701 17.7031 9.35156C17.7031 14.0461 13.8977 17.8516 9.20312 17.8516H9.08667C9.0096 17.8516 8.93282 17.8493 8.85632 17.8448ZM3.74867 14.7151C3.68512 14.5325 3.66349 14.3381 3.68538 14.1461C3.70728 13.954 3.77214 13.7694 3.87514 13.6059C3.97815 13.4424 4.11666 13.3042 4.2804 13.2015C4.44414 13.0989 4.62889 13.0344 4.82095 13.0129C8.13425 12.6462 10.2924 12.6793 13.5895 13.0206C13.7819 13.0406 13.9671 13.1043 14.1311 13.2067C14.2951 13.3091 14.4335 13.4476 14.5359 13.6116C14.6383 13.7757 14.7019 13.9609 14.7219 14.1532C14.7418 14.3455 14.7177 14.5399 14.6512 14.7214C16.0644 13.2917 16.8557 11.3618 16.8531 9.35156C16.8531 5.12664 13.428 1.70156 9.20312 1.70156C4.9782 1.70156 1.55312 5.12664 1.55312 9.35156C1.55312 11.4409 2.3908 13.3347 3.74867 14.7151Z" fill="#1B1B1B" fill-opacity="0.5367"/>
</svg>
