<svg width="16" height="16" viewBox="0 0 16 16" fill="none" xmlns="http://www.w3.org/2000/svg">
<g opacity="0.16">
<path d="M1 13.25C1 12.3217 1.36875 11.4315 2.02513 10.7751C2.6815 10.1187 3.57174 9.75 4.5 9.75H11.5C12.4283 9.75 13.3185 10.1187 13.9749 10.7751C14.6313 11.4315 15 12.3217 15 13.25C15 13.7141 14.8156 14.1592 14.4874 14.4874C14.1592 14.8156 13.7141 15 13.25 15H2.75C2.28587 15 1.84075 14.8156 1.51256 14.4874C1.18437 14.1592 1 13.7141 1 13.25Z" fill="#DDDDDD" fill-opacity="0.866667"/>
<path d="M1.5 13.25C1.5 12.4544 1.81607 11.6913 2.37868 11.1287C2.94129 10.5661 3.70435 10.25 4.5 10.25H11.5C12.2956 10.25 13.0587 10.5661 13.6213 11.1287L13.9662 10.7837L13.6213 11.1287C14.1839 11.6913 14.5 12.4544 14.5 13.25C14.5 13.5815 14.3683 13.8995 14.1339 14.1339C13.8995 14.3683 13.5815 14.5 13.25 14.5H2.75C2.41848 14.5 2.10054 14.3683 1.86612 14.1339C1.6317 13.8995 1.5 13.5815 1.5 13.25Z" stroke="#1B1B1B" stroke-opacity="0.5"/>
</g>
<path d="M1 13.25C1 12.3217 1.36875 11.4315 2.02513 10.7751C2.6815 10.1187 3.57174 9.75 4.5 9.75H11.5C12.4283 9.75 13.3185 10.1187 13.9749 10.7751C14.6313 11.4315 15 12.3217 15 13.25C15 13.7141 14.8156 14.1592 14.4874 14.4874C14.1592 14.8156 13.7141 15 13.25 15H2.75C2.28587 15 1.84075 14.8156 1.51256 14.4874C1.18437 14.1592 1 13.7141 1 13.25Z" fill="#DDDDDD" fill-opacity="0.866667" stroke="#1B1B1B" stroke-opacity="0.5" stroke-width="2" stroke-linejoin="round"/>
<path d="M8 6.25C9.44975 6.25 10.625 5.07475 10.625 3.625C10.625 2.17525 9.44975 1 8 1C6.55025 1 5.375 2.17525 5.375 3.625C5.375 5.07475 6.55025 6.25 8 6.25Z" fill="#DDDDDD" fill-opacity="0.866667" stroke="#1B1B1B" stroke-opacity="0.5" stroke-width="2"/>
</svg>
