<svg width="27" height="27" viewBox="0 0 27 27" fill="none" xmlns="http://www.w3.org/2000/svg">
<circle cx="13.5" cy="13.5" r="13.5" fill="#D9D9D9" fill-opacity="0.53"/>
<path d="M13.8315 15.9259L10.4041 19.3532C10.3511 19.4065 10.288 19.4487 10.2186 19.4776C10.1491 19.5064 10.0747 19.5212 9.99952 19.5212C9.92434 19.5212 9.8499 19.5064 9.78047 19.4776C9.71104 19.4487 9.64798 19.4065 9.59491 19.3532L6.1676 15.9259C6.06029 15.8186 6 15.6731 6 15.5213C6 15.3696 6.06029 15.224 6.1676 15.1167C6.27491 15.0094 6.42045 14.9491 6.57221 14.9491C6.72397 14.9491 6.86951 15.0094 6.97682 15.1167L9.42878 17.5687V10.5712C9.42878 10.4197 9.48896 10.2744 9.59609 10.1673C9.70321 10.0602 9.8485 10 10 10C10.1515 10 10.2968 10.0602 10.4039 10.1673C10.511 10.2744 10.5712 10.4197 10.5712 10.5712V17.5687L13.0232 15.1162C13.1305 15.0089 13.276 14.9486 13.4278 14.9486C13.5795 14.9486 13.7251 15.0089 13.8324 15.1162C13.9397 15.2235 14 15.3691 14 15.5208C14 15.6726 13.9397 15.8181 13.8324 15.9254L13.8315 15.9259Z" fill="#B0ACAC"/>
<path d="M13.1685 11.7928L16.5959 8.36551C16.6489 8.31226 16.712 8.27 16.7814 8.24117C16.8509 8.21234 16.9253 8.1975 17.0005 8.1975C17.0757 8.1975 17.1501 8.21234 17.2195 8.24117C17.289 8.27 17.352 8.31226 17.4051 8.36551L20.8324 11.7928C20.9397 11.9001 21 12.0457 21 12.1974C21 12.3492 20.9397 12.4947 20.8324 12.6021C20.7251 12.7094 20.5795 12.7696 20.4278 12.7696C20.276 12.7696 20.1305 12.7094 20.0232 12.6021L17.5712 10.1501V17.1475C17.5712 17.299 17.511 17.4443 17.4039 17.5514C17.2968 17.6586 17.1515 17.7188 17 17.7188C16.8485 17.7188 16.7032 17.6586 16.5961 17.5514C16.489 17.4443 16.4288 17.299 16.4288 17.1475V10.1501L13.9768 12.6025C13.8695 12.7098 13.724 12.7701 13.5722 12.7701C13.4205 12.7701 13.2749 12.7098 13.1676 12.6025C13.0603 12.4952 13 12.3497 13 12.1979C13 12.0462 13.0603 11.9006 13.1676 11.7933L13.1685 11.7928Z" fill="#B0ACAC"/>
</svg>
