<svg width="7" height="42" viewBox="0 0 7 42" fill="none" xmlns="http://www.w3.org/2000/svg">
<path fill-rule="evenodd" clip-rule="evenodd" d="M6.125 39.375H0.875V42H0.4375V39.375H0.217171C0.0972304 39.375 0 39.1877 0 38.9334V38.0666C0 37.8227 0.0989534 37.625 0.217171 37.625H0.4375V35H0.217171C0.0972304 35 0 34.8127 0 34.5584V33.6916C0 33.4477 0.0989534 33.25 0.217171 33.25H0.4375V30.625H0.217171C0.0972304 30.625 0 30.4377 0 30.1834V29.3166C0 29.0727 0.0989534 28.875 0.217171 28.875H0.4375V26.25H0.217171C0.0972304 26.25 0 26.0627 0 25.8084V24.9416C0 24.6977 0.0989534 24.5 0.217171 24.5H0.4375V21.875H0.217171C0.0972304 21.875 0 21.6877 0 21.4334V20.5666C0 20.3227 0.0989534 20.125 0.217171 20.125H0.4375V17.5H0.217171C0.0972304 17.5 0 17.3127 0 17.0584V16.1916C0 15.9477 0.0989534 15.75 0.217171 15.75H0.4375V13.125H0.217171C0.0972304 13.125 0 12.9377 0 12.6834V11.8166C0 11.5727 0.0989534 11.375 0.217171 11.375H0.4375V8.75H0.217171C0.0972304 8.75 0 8.56272 0 8.3084V7.4416C0 7.19771 0.0989534 7 0.217171 7H0.4375V4.375H0.217171C0.0972304 4.375 0 4.18772 0 3.9334V3.0666C0 2.82271 0.0989534 2.625 0.217171 2.625H0.4375V0H0.875V2.625H6.125V0H6.5625V2.625H6.78283C6.90277 2.625 7 2.81228 7 3.0666V3.9334C7 4.17729 6.90105 4.375 6.78283 4.375H6.5625V7H6.78283C6.90277 7 7 7.18728 7 7.4416V8.3084C7 8.55229 6.90105 8.75 6.78283 8.75H6.5625V11.375H6.78283C6.90277 11.375 7 11.5623 7 11.8166V12.6834C7 12.9273 6.90105 13.125 6.78283 13.125H6.5625V15.75H6.78283C6.90277 15.75 7 15.9373 7 16.1916V17.0584C7 17.3023 6.90105 17.5 6.78283 17.5H6.5625V20.125H6.78283C6.90277 20.125 7 20.3123 7 20.5666V21.4334C7 21.6773 6.90105 21.875 6.78283 21.875H6.5625V24.5H6.78283C6.90277 24.5 7 24.6873 7 24.9416V25.8084C7 26.0523 6.90105 26.25 6.78283 26.25H6.5625V28.875H6.78283C6.90277 28.875 7 29.0623 7 29.3166V30.1834C7 30.4273 6.90105 30.625 6.78283 30.625H6.5625V33.25H6.78283C6.90277 33.25 7 33.4373 7 33.6916V34.5584C7 34.8023 6.90105 35 6.78283 35H6.5625V37.625H6.78283C6.90277 37.625 7 37.8123 7 38.0666V38.9334C7 39.1773 6.90105 39.375 6.78283 39.375H6.5625V42H6.125V39.375ZM6.125 37.625H0.875V35H6.125V37.625ZM6.125 33.25H0.875V30.625H6.125V33.25ZM6.125 28.875H0.875V26.25H6.125V28.875ZM6.125 24.5H0.875V21.875H6.125V24.5ZM6.125 20.125H0.875V17.5H6.125V20.125ZM6.125 15.75H0.875V13.125H6.125V15.75ZM6.125 11.375H0.875V8.75H6.125V11.375ZM6.125 7H0.875V4.375H6.125V7Z" fill="black"/>
</svg>
