<svg width="11" height="15" viewBox="0 0 11 15" fill="none" xmlns="http://www.w3.org/2000/svg">
<path d="M0.729682 0.632812C0.439674 0.632812 0.203125 0.855871 0.203125 1.12899V12.8614C0.203125 13.1346 0.439674 13.3576 0.729682 13.3576H6.01358L6.01363 11.6224H0.976195V1.97113H7.80262V9.05874C7.91403 9.04748 8.02798 9.04053 8.1449 9.04053C8.29327 9.04053 8.43746 9.05048 8.5766 9.06841V1.12899C8.5766 0.855871 8.33974 0.632812 8.04974 0.632812H0.729682ZM3.50004 1.16996H5.27396C5.35918 1.16996 5.42863 1.23537 5.42863 1.31563C5.42863 1.39589 5.35918 1.45674 5.27396 1.45674H3.50004C3.41481 1.45674 3.34536 1.39603 3.34536 1.31563C3.34536 1.23537 3.41481 1.16996 3.50004 1.16996ZM4.39002 12.0244C4.64198 12.0244 4.84437 12.2196 4.84437 12.4569C4.84437 12.6942 4.64213 12.8848 4.39002 12.8848C4.13806 12.8848 3.93083 12.6943 3.93083 12.4569C3.93083 12.2196 4.13806 12.0244 4.39002 12.0244Z" fill="#6F34FF"/>
<path d="M10.1373 10.7891C9.87668 11.288 9.08246 11.651 8.14288 11.651C7.2033 11.651 6.40907 11.288 6.14844 10.7891C6.18887 11.4121 7.06609 11.91 8.14288 11.91C9.21966 11.91 10.0969 11.4121 10.1373 10.7891Z" fill="#6F34FF"/>
<path d="M10.1333 10.3456C10.1333 9.70166 9.23952 9.17969 8.13697 9.17969C7.03442 9.17969 6.14062 9.70166 6.14062 10.3456C6.14062 10.9894 7.03442 11.5114 8.13697 11.5114C9.23952 11.5114 10.1333 10.9894 10.1333 10.3456Z" fill="#6F34FF"/>
<path d="M10.1373 11.1797C9.87668 11.6786 9.08246 12.0416 8.14288 12.0416C7.2033 12.0416 6.40907 11.6786 6.14844 11.1797C6.18887 11.8027 7.06609 12.3007 8.14288 12.3007C9.21966 12.3007 10.0969 11.8027 10.1373 11.1797Z" fill="#6F34FF"/>
<path d="M10.1373 11.5703C9.87668 12.0692 9.08246 12.4322 8.14288 12.4322C7.2033 12.4322 6.40907 12.0692 6.14844 11.5703C6.18887 12.1934 7.06609 12.6913 8.14288 12.6913C9.21966 12.6913 10.0969 12.1934 10.1373 11.5703Z" fill="#6F34FF"/>
<path d="M10.1373 11.9688C9.87668 12.4677 9.08246 12.8306 8.14288 12.8306C7.2033 12.8306 6.40907 12.4677 6.14844 11.9688C6.18887 12.5918 7.06609 13.0897 8.14288 13.0897C9.21966 13.0897 10.0969 12.5918 10.1373 11.9688Z" fill="#6F34FF"/>
<path d="M10.1373 12.3672C9.87668 12.8661 9.08246 13.2291 8.14288 13.2291C7.2033 13.2291 6.40907 12.8661 6.14844 12.3672C6.18887 12.9902 7.06609 13.4882 8.14288 13.4882C9.21966 13.4882 10.0969 12.9902 10.1373 12.3672Z" fill="#6F34FF"/>
<path d="M10.1373 12.7578C9.87668 13.2567 9.08246 13.6197 8.14288 13.6197C7.2033 13.6197 6.40907 13.2567 6.14844 12.7578C6.18887 13.3809 7.06609 13.8788 8.14288 13.8788C9.21966 13.8788 10.0969 13.3809 10.1373 12.7578Z" fill="#6F34FF"/>
<path d="M10.1373 13.1562C9.87668 13.6552 9.08246 14.0181 8.14288 14.0181C7.2033 14.0181 6.40907 13.6552 6.14844 13.1562C6.18887 13.7793 7.06609 14.2772 8.14288 14.2772C9.21966 14.2772 10.0969 13.7793 10.1373 13.1562Z" fill="#6F34FF"/>
<path d="M10.1373 13.5547C9.87668 14.0536 9.08246 14.4166 8.14288 14.4166C7.2033 14.4166 6.40907 14.0536 6.14844 13.5547C6.18887 14.1777 7.06609 14.6757 8.14288 14.6757C9.21966 14.6757 10.0969 14.1777 10.1373 13.5547Z" fill="#6F34FF"/>
<path d="M5.64994 4.29688L5.13989 5.02395C3.50773 3.94788 2.32399 5.25306 2.57194 6.6834C2.64226 5.86092 3.2274 4.90583 4.59283 5.80108L4.07202 6.54335L6.05367 6.16313L5.64994 4.29688Z" fill="#6F34FF"/>
<path d="M6.2083 6.71875C6.13797 7.54124 5.55315 8.49812 4.18773 7.60286L4.70821 6.86059L2.72656 7.24081L3.1303 9.10558L3.64034 8.37999C5.27251 9.45607 6.45625 8.1491 6.2083 6.71875Z" fill="#6F34FF"/>
</svg>
