<svg width="25" height="24" viewBox="0 0 25 24" fill="none" xmlns="http://www.w3.org/2000/svg">
<circle cx="12.3906" cy="12" r="12" fill="#2BAAE1"/>
<path d="M18.9426 9.00469C18.4806 9.21469 17.9826 9.35269 17.4666 9.41869C17.9946 9.10069 18.4026 8.59669 18.5946 7.99069C18.0966 8.29069 17.5446 8.50069 16.9626 8.62069C16.4886 8.10469 15.8226 7.80469 15.0666 7.80469C13.6566 7.80469 12.5046 8.95669 12.5046 10.3787C12.5046 10.5827 12.5286 10.7807 12.5706 10.9667C10.4346 10.8587 8.53262 9.83269 7.26663 8.27869C7.04463 8.65669 6.91863 9.10069 6.91863 9.56869C6.91863 10.4627 7.36863 11.2547 8.06463 11.7047C7.63863 11.7047 7.24263 11.5847 6.89463 11.4047V11.4227C6.89463 12.6707 7.78263 13.7147 8.95863 13.9487C8.58113 14.0524 8.18465 14.0668 7.80063 13.9907C7.96359 14.5022 8.28275 14.9497 8.71323 15.2704C9.14372 15.5912 9.66389 15.7689 10.2006 15.7787C9.29083 16.499 8.16303 16.8883 7.00262 16.8827C6.79862 16.8827 6.59463 16.8707 6.39062 16.8467C7.53062 17.5787 8.88663 18.0047 10.3386 18.0047C15.0666 18.0047 17.6646 14.0807 17.6646 10.6787C17.6646 10.5647 17.6646 10.4567 17.6586 10.3427C18.1626 9.98269 18.5946 9.52669 18.9426 9.00469Z" fill="white" fill-opacity="0.941176"/>
</svg>
