<svg width="24" height="24" viewBox="0 0 24 24" fill="none" xmlns="http://www.w3.org/2000/svg">
<circle cx="12" cy="12" r="12" fill="#E17841"/>
<path d="M8.91319 16.9783C8.5783 16.7248 8.38275 16.395 8.32654 15.9887C8.27033 15.5824 8.36896 15.2119 8.62244 14.877C8.87591 14.5421 9.20578 14.3466 9.61203 14.2903C10.0183 14.2341 10.3888 14.3328 10.7237 14.5862C11.0586 14.8397 11.2542 15.1696 11.3104 15.5758C11.3666 15.9821 11.268 16.3527 11.0145 16.6875C10.761 17.0224 10.4311 17.218 10.0249 17.2742C9.61864 17.3304 9.24807 17.2318 8.91319 16.9783ZM8.25609 12.2294L8.02996 10.4403C8.85647 10.326 9.6908 10.3713 10.5329 10.5763C11.3751 10.7813 12.1629 11.1611 12.8964 11.7158C13.6299 12.2705 14.2081 12.9276 14.631 13.6871C15.0539 14.4467 15.3193 15.2433 15.4272 16.077L13.6621 16.3212C13.5768 15.7048 13.3784 15.1219 13.0668 14.5726C12.7552 14.0232 12.3363 13.5493 11.8101 13.151C11.2838 12.7527 10.714 12.4782 10.1007 12.3275C9.48733 12.1768 8.87247 12.1441 8.25609 12.2294ZM7.76181 8.65714L7.51758 6.89205C8.81844 6.69778 10.1192 6.7605 11.4198 7.08023C12.7204 7.39996 13.9368 7.98832 15.0691 8.84532C16.2013 9.70231 17.0978 10.7133 17.7587 11.8782C18.4196 13.0431 18.8332 14.2779 18.9994 15.5827L17.2343 15.8269C17.0851 14.7482 16.7371 13.7293 16.1903 12.7702C15.6436 11.8111 14.9077 10.9812 13.9827 10.2805C13.0577 9.57991 12.0594 9.09715 10.9876 8.83227C9.9159 8.56739 8.84063 8.50901 7.76181 8.65714Z" fill="white"/>
</svg>
