<svg width="25" height="24" viewBox="0 0 25 24" fill="none" xmlns="http://www.w3.org/2000/svg">
<circle cx="12.7891" cy="12" r="12" fill="#FE0000"/>
<path d="M12.9433 7.20312C13.2637 7.20493 14.0653 7.21272 14.9173 7.24692L15.2197 7.26012C16.0771 7.30032 16.9339 7.36992 17.3593 7.48812C17.9263 7.64772 18.3715 8.11213 18.5221 8.70133C18.7621 9.63733 18.7921 11.4625 18.7957 11.9047L18.7963 11.9959V12.1003C18.7921 12.5425 18.7621 14.3683 18.5221 15.3037C18.3697 15.8947 17.9239 16.3597 17.3593 16.5169C16.9339 16.6351 16.0771 16.7047 15.2197 16.7449L14.9173 16.7587C14.0653 16.7923 13.2637 16.8007 12.9433 16.8019L12.8023 16.8025H12.6493C11.9713 16.7983 9.13567 16.7677 8.23327 16.5169C7.66688 16.3573 7.22108 15.8929 7.07048 15.3037C6.83048 14.3677 6.80047 12.5425 6.79688 12.1003V11.9047C6.80047 11.4625 6.83048 9.63673 7.07048 8.70133C7.22288 8.11033 7.66867 7.64532 8.23387 7.48872C9.13567 7.23732 11.9719 7.20673 12.6499 7.20312H12.9433ZM11.5963 9.90313V14.1031L15.1963 12.0031L11.5963 9.90313Z" fill="white"/>
</svg>
